<svg id="visual" viewBox="0 0 900 600" width="900" height="600" xmlns="http://www.w3.org/2000/svg" xmlns:xlink="http://www.w3.org/1999/xlink" version="1.1"><g stroke-width="1" stroke-linejoin="bevel"><path d="M436.1 310L490.9 381L502.9 332Z" fill="#658a9d" stroke="#658a9d"></path><path d="M436.1 310L396.1 407L490.9 381Z" fill="#07304f" stroke="#07304f"></path><path d="M396.1 407L405.1 454L490.9 381Z" fill="#133958" stroke="#133958"></path><path d="M593.7 359L560.7 270L502.9 332Z" fill="#5a8094" stroke="#5a8094"></path><path d="M502.9 332L533.7 213L436.1 310Z" fill="#315771" stroke="#315771"></path><path d="M405.1 454L488.9 475L490.9 381Z" fill="#5a8094" stroke="#5a8094"></path><path d="M490.9 381L593.7 359L502.9 332Z" fill="#5a8094" stroke="#5a8094"></path><path d="M572.7 433L593.7 359L490.9 381Z" fill="#274d69" stroke="#274d69"></path><path d="M488.9 475L572.7 433L490.9 381Z" fill="#3b617a" stroke="#3b617a"></path><path d="M317.3 310L314.3 342L436.1 310Z" fill="#658a9d" stroke="#658a9d"></path><path d="M436.1 310L314.3 342L396.1 407Z" fill="#133958" stroke="#133958"></path><path d="M396.1 407L316.3 468L405.1 454Z" fill="#658a9d" stroke="#658a9d"></path><path d="M326.3 202L317.3 310L436.1 310Z" fill="#658a9d" stroke="#658a9d"></path><path d="M560.7 270L533.7 213L502.9 332Z" fill="#315771" stroke="#315771"></path><path d="M462.9 187L419.1 194L436.1 310Z" fill="#274d69" stroke="#274d69"></path><path d="M533.7 213L462.9 187L436.1 310Z" fill="#456b83" stroke="#456b83"></path><path d="M314.3 342L316.3 468L396.1 407Z" fill="#315771" stroke="#315771"></path><path d="M405.1 454L481.9 555L488.9 475Z" fill="#50758b" stroke="#50758b"></path><path d="M488.9 475L581.7 492L572.7 433Z" fill="#1d4360" stroke="#1d4360"></path><path d="M684.5 412L662.5 344L593.7 359Z" fill="#7095a6" stroke="#7095a6"></path><path d="M481.9 555L581.7 492L488.9 475Z" fill="#133958" stroke="#133958"></path><path d="M533.7 213L481.9 155L462.9 187Z" fill="#315771" stroke="#315771"></path><path d="M462.9 187L394.1 127L419.1 194Z" fill="#133958" stroke="#133958"></path><path d="M394.1 127L326.3 202L419.1 194Z" fill="#1d4360" stroke="#1d4360"></path><path d="M419.1 194L326.3 202L436.1 310Z" fill="#50758b" stroke="#50758b"></path><path d="M271.5 273L261.5 377L314.3 342Z" fill="#1d4360" stroke="#1d4360"></path><path d="M271.5 273L314.3 342L317.3 310Z" fill="#1d4360" stroke="#1d4360"></path><path d="M314.3 342L261.5 377L316.3 468Z" fill="#50758b" stroke="#50758b"></path><path d="M684.5 412L593.7 359L572.7 433Z" fill="#07304f" stroke="#07304f"></path><path d="M593.7 359L662.5 344L560.7 270Z" fill="#274d69" stroke="#274d69"></path><path d="M656.5 192L580.7 149L533.7 213Z" fill="#133958" stroke="#133958"></path><path d="M533.7 213L580.7 149L481.9 155Z" fill="#50758b" stroke="#50758b"></path><path d="M326.3 202L271.5 273L317.3 310Z" fill="#07304f" stroke="#07304f"></path><path d="M371.1 559L481.9 555L405.1 454Z" fill="#3b617a" stroke="#3b617a"></path><path d="M326.3 202L273.5 226L271.5 273Z" fill="#3b617a" stroke="#3b617a"></path><path d="M271.5 273L199.6 368L261.5 377Z" fill="#7095a6" stroke="#7095a6"></path><path d="M273.5 514L297.3 503L316.3 468Z" fill="#133958" stroke="#133958"></path><path d="M316.3 468L371.1 559L405.1 454Z" fill="#133958" stroke="#133958"></path><path d="M297.3 503L371.1 559L316.3 468Z" fill="#1d4360" stroke="#1d4360"></path><path d="M481.9 155L394.1 127L462.9 187Z" fill="#07304f" stroke="#07304f"></path><path d="M326.3 202L280.5 113L273.5 226Z" fill="#133958" stroke="#133958"></path><path d="M656.5 192L533.7 213L560.7 270Z" fill="#456b83" stroke="#456b83"></path><path d="M481.9 155L506.9 110L394.1 127Z" fill="#658a9d" stroke="#658a9d"></path><path d="M664.5 511L684.5 412L572.7 433Z" fill="#07304f" stroke="#07304f"></path><path d="M762.4 338L687.5 266L662.5 344Z" fill="#3b617a" stroke="#3b617a"></path><path d="M662.5 344L687.5 266L560.7 270Z" fill="#456b83" stroke="#456b83"></path><path d="M580.7 149L506.9 110L481.9 155Z" fill="#315771" stroke="#315771"></path><path d="M687.5 266L656.5 192L560.7 270Z" fill="#1d4360" stroke="#1d4360"></path><path d="M210.5 429L273.5 514L316.3 468Z" fill="#456b83" stroke="#456b83"></path><path d="M297.3 503L335.3 600L371.1 559Z" fill="#133958" stroke="#133958"></path><path d="M447.1 600L481.9 555L371.1 559Z" fill="#274d69" stroke="#274d69"></path><path d="M447.1 600L457.9 600L481.9 555Z" fill="#456b83" stroke="#456b83"></path><path d="M548.7 600L664.5 511L581.7 492Z" fill="#274d69" stroke="#274d69"></path><path d="M581.7 492L664.5 511L572.7 433Z" fill="#274d69" stroke="#274d69"></path><path d="M335.3 600L447.1 600L371.1 559Z" fill="#07304f" stroke="#07304f"></path><path d="M314.3 82L347.3 115L375.1 42Z" fill="#50758b" stroke="#50758b"></path><path d="M394.1 127L347.3 115L326.3 202Z" fill="#133958" stroke="#133958"></path><path d="M548.7 600L581.7 492L481.9 555Z" fill="#7095a6" stroke="#7095a6"></path><path d="M153.6 296L199.6 368L271.5 273Z" fill="#274d69" stroke="#274d69"></path><path d="M261.5 377L210.5 429L316.3 468Z" fill="#1d4360" stroke="#1d4360"></path><path d="M199.6 368L210.5 429L261.5 377Z" fill="#133958" stroke="#133958"></path><path d="M457.9 600L548.7 600L481.9 555Z" fill="#133958" stroke="#133958"></path><path d="M720.4 234L669.5 168L656.5 192Z" fill="#5a8094" stroke="#5a8094"></path><path d="M656.5 192L669.5 168L580.7 149Z" fill="#274d69" stroke="#274d69"></path><path d="M580.7 149L585.7 78L506.9 110Z" fill="#456b83" stroke="#456b83"></path><path d="M281.5 600L297.3 503L273.5 514Z" fill="#3b617a" stroke="#3b617a"></path><path d="M281.5 600L335.3 600L297.3 503Z" fill="#5a8094" stroke="#5a8094"></path><path d="M761.4 266L720.4 234L687.5 266Z" fill="#50758b" stroke="#50758b"></path><path d="M687.5 266L720.4 234L656.5 192Z" fill="#133958" stroke="#133958"></path><path d="M199.6 368L183.6 425L210.5 429Z" fill="#274d69" stroke="#274d69"></path><path d="M210.5 429L182.6 524L273.5 514Z" fill="#7095a6" stroke="#7095a6"></path><path d="M664.5 511L739.4 435L684.5 412Z" fill="#456b83" stroke="#456b83"></path><path d="M684.5 412L762.4 338L662.5 344Z" fill="#7095a6" stroke="#7095a6"></path><path d="M347.3 115L280.5 113L326.3 202Z" fill="#07304f" stroke="#07304f"></path><path d="M273.5 226L153.6 296L271.5 273Z" fill="#5a8094" stroke="#5a8094"></path><path d="M314.3 82L280.5 113L347.3 115Z" fill="#1d4360" stroke="#1d4360"></path><path d="M669.5 168L585.7 78L580.7 149Z" fill="#456b83" stroke="#456b83"></path><path d="M375.1 42L347.3 115L394.1 127Z" fill="#1d4360" stroke="#1d4360"></path><path d="M739.4 435L762.4 338L684.5 412Z" fill="#1d4360" stroke="#1d4360"></path><path d="M375.1 42L394.1 127L506.9 110Z" fill="#5a8094" stroke="#5a8094"></path><path d="M125.6 196L212.5 170L136.6 141Z" fill="#1d4360" stroke="#1d4360"></path><path d="M280.5 113L212.5 170L273.5 226Z" fill="#274d69" stroke="#274d69"></path><path d="M199.6 368L108.8 454L183.6 425Z" fill="#315771" stroke="#315771"></path><path d="M182.6 524L281.5 600L273.5 514Z" fill="#7095a6" stroke="#7095a6"></path><path d="M212.5 170L153.6 296L273.5 226Z" fill="#1d4360" stroke="#1d4360"></path><path d="M720.4 234L764.4 158L669.5 168Z" fill="#07304f" stroke="#07304f"></path><path d="M669.5 168L636.5 47L585.7 78Z" fill="#07304f" stroke="#07304f"></path><path d="M762.4 338L761.4 266L687.5 266Z" fill="#1d4360" stroke="#1d4360"></path><path d="M486.9 0L375.1 42L506.9 110Z" fill="#133958" stroke="#133958"></path><path d="M183.6 425L182.6 524L210.5 429Z" fill="#315771" stroke="#315771"></path><path d="M108.8 454L182.6 524L183.6 425Z" fill="#3b617a" stroke="#3b617a"></path><path d="M664.5 511L759.4 533L739.4 435Z" fill="#315771" stroke="#315771"></path><path d="M548.7 600L686.5 600L664.5 511Z" fill="#456b83" stroke="#456b83"></path><path d="M727.4 62L636.5 47L669.5 168Z" fill="#50758b" stroke="#50758b"></path><path d="M585.7 78L486.9 0L506.9 110Z" fill="#658a9d" stroke="#658a9d"></path><path d="M570.7 0L486.9 0L585.7 78Z" fill="#133958" stroke="#133958"></path><path d="M686.5 600L759.4 533L664.5 511Z" fill="#658a9d" stroke="#658a9d"></path><path d="M853.2 394L814.2 310L762.4 338Z" fill="#456b83" stroke="#456b83"></path><path d="M486.9 0L406.1 0L375.1 42Z" fill="#274d69" stroke="#274d69"></path><path d="M375.1 42L289.3 0L314.3 82Z" fill="#07304f" stroke="#07304f"></path><path d="M136.6 141L212.5 170L162.6 67Z" fill="#07304f" stroke="#07304f"></path><path d="M853.2 394L762.4 338L739.4 435Z" fill="#50758b" stroke="#50758b"></path><path d="M762.4 338L814.2 310L761.4 266Z" fill="#133958" stroke="#133958"></path><path d="M761.4 266L764.4 158L720.4 234Z" fill="#5a8094" stroke="#5a8094"></path><path d="M823.2 189L764.4 158L761.4 266Z" fill="#1d4360" stroke="#1d4360"></path><path d="M636.5 47L570.7 0L585.7 78Z" fill="#315771" stroke="#315771"></path><path d="M759.4 533L806.2 473L739.4 435Z" fill="#133958" stroke="#133958"></path><path d="M43.8 337L108.8 454L199.6 368Z" fill="#50758b" stroke="#50758b"></path><path d="M212.5 170L125.6 196L153.6 296Z" fill="#1d4360" stroke="#1d4360"></path><path d="M153.6 296L43.8 337L199.6 368Z" fill="#315771" stroke="#315771"></path><path d="M212.5 170L280.5 113L162.6 67Z" fill="#3b617a" stroke="#3b617a"></path><path d="M261.5 0L280.5 113L314.3 82Z" fill="#1d4360" stroke="#1d4360"></path><path d="M406.1 0L289.3 0L375.1 42Z" fill="#658a9d" stroke="#658a9d"></path><path d="M764.4 158L727.4 62L669.5 168Z" fill="#50758b" stroke="#50758b"></path><path d="M636.5 47L674.5 0L570.7 0Z" fill="#315771" stroke="#315771"></path><path d="M806.2 473L853.2 394L739.4 435Z" fill="#5a8094" stroke="#5a8094"></path><path d="M852.2 253L823.2 189L761.4 266Z" fill="#5a8094" stroke="#5a8094"></path><path d="M852.2 253L761.4 266L814.2 310Z" fill="#1d4360" stroke="#1d4360"></path><path d="M764.4 158L812.2 54L727.4 62Z" fill="#50758b" stroke="#50758b"></path><path d="M289.3 0L261.5 0L314.3 82Z" fill="#7095a6" stroke="#7095a6"></path><path d="M900 301L852.2 253L814.2 310Z" fill="#07304f" stroke="#07304f"></path><path d="M759.4 533L856.2 496L806.2 473Z" fill="#50758b" stroke="#50758b"></path><path d="M806.2 473L856.2 496L853.2 394Z" fill="#7095a6" stroke="#7095a6"></path><path d="M686.5 600L775.4 600L759.4 533Z" fill="#456b83" stroke="#456b83"></path><path d="M727.4 62L674.5 0L636.5 47Z" fill="#7095a6" stroke="#7095a6"></path><path d="M162.6 67L110.8 137L136.6 141Z" fill="#1d4360" stroke="#1d4360"></path><path d="M136.6 141L110.8 137L125.6 196Z" fill="#7095a6" stroke="#7095a6"></path><path d="M51.8 210L48.8 322L153.6 296Z" fill="#274d69" stroke="#274d69"></path><path d="M261.5 0L162.6 67L280.5 113Z" fill="#274d69" stroke="#274d69"></path><path d="M775.4 600L784.2 600L759.4 533Z" fill="#5a8094" stroke="#5a8094"></path><path d="M51.8 210L153.6 296L125.6 196Z" fill="#315771" stroke="#315771"></path><path d="M48.8 322L43.8 337L153.6 296Z" fill="#133958" stroke="#133958"></path><path d="M112.8 600L125.6 600L182.6 524Z" fill="#1d4360" stroke="#1d4360"></path><path d="M182.6 524L125.6 600L281.5 600Z" fill="#456b83" stroke="#456b83"></path><path d="M112.8 600L182.6 524L46.8 498Z" fill="#3b617a" stroke="#3b617a"></path><path d="M784.2 600L856.2 496L759.4 533Z" fill="#133958" stroke="#133958"></path><path d="M853.2 394L900 301L814.2 310Z" fill="#274d69" stroke="#274d69"></path><path d="M727.4 62L713.4 0L674.5 0Z" fill="#3b617a" stroke="#3b617a"></path><path d="M782.2 0L713.4 0L727.4 62Z" fill="#5a8094" stroke="#5a8094"></path><path d="M46.8 498L182.6 524L108.8 454Z" fill="#50758b" stroke="#50758b"></path><path d="M48.8 322L0 335L43.8 337Z" fill="#3b617a" stroke="#3b617a"></path><path d="M110.8 137L51.8 210L125.6 196Z" fill="#50758b" stroke="#50758b"></path><path d="M0 257L51.8 210L0 187Z" fill="#658a9d" stroke="#658a9d"></path><path d="M0 412L46.8 498L108.8 454Z" fill="#315771" stroke="#315771"></path><path d="M900 407L900 301L853.2 394Z" fill="#133958" stroke="#133958"></path><path d="M852.2 253L900 214L823.2 189Z" fill="#1d4360" stroke="#1d4360"></path><path d="M823.2 189L812.2 54L764.4 158Z" fill="#658a9d" stroke="#658a9d"></path><path d="M856.2 496L900 407L853.2 394Z" fill="#315771" stroke="#315771"></path><path d="M900 140L812.2 54L823.2 189Z" fill="#133958" stroke="#133958"></path><path d="M900 301L900 214L852.2 253Z" fill="#5a8094" stroke="#5a8094"></path><path d="M900 497L900 487L856.2 496Z" fill="#274d69" stroke="#274d69"></path><path d="M856.2 496L900 487L900 407Z" fill="#133958" stroke="#133958"></path><path d="M0 292L0 335L48.8 322Z" fill="#274d69" stroke="#274d69"></path><path d="M43.8 337L0 412L108.8 454Z" fill="#07304f" stroke="#07304f"></path><path d="M900 600L900 497L856.2 496Z" fill="#5a8094" stroke="#5a8094"></path><path d="M0 257L0 292L48.8 322Z" fill="#315771" stroke="#315771"></path><path d="M0 335L0 412L43.8 337Z" fill="#7095a6" stroke="#7095a6"></path><path d="M0 187L51.8 210L110.8 137Z" fill="#133958" stroke="#133958"></path><path d="M51.8 210L0 257L48.8 322Z" fill="#3b617a" stroke="#3b617a"></path><path d="M812.2 54L782.2 0L727.4 62Z" fill="#7095a6" stroke="#7095a6"></path><path d="M261.5 0L127.6 0L162.6 67Z" fill="#07304f" stroke="#07304f"></path><path d="M162.6 67L90.8 39L110.8 137Z" fill="#1d4360" stroke="#1d4360"></path><path d="M127.6 0L90.8 39L162.6 67Z" fill="#3b617a" stroke="#3b617a"></path><path d="M900 214L900 140L823.2 189Z" fill="#50758b" stroke="#50758b"></path><path d="M812.2 54L900 0L782.2 0Z" fill="#133958" stroke="#133958"></path><path d="M0 89L0 187L110.8 137Z" fill="#7095a6" stroke="#7095a6"></path><path d="M127.6 0L117.8 0L90.8 39Z" fill="#315771" stroke="#315771"></path><path d="M0 412L0 548L46.8 498Z" fill="#658a9d" stroke="#658a9d"></path><path d="M46.8 498L0 548L112.8 600Z" fill="#133958" stroke="#133958"></path><path d="M784.2 600L900 600L856.2 496Z" fill="#315771" stroke="#315771"></path><path d="M0 548L0 600L112.8 600Z" fill="#456b83" stroke="#456b83"></path><path d="M900 140L900 57L812.2 54Z" fill="#07304f" stroke="#07304f"></path><path d="M90.8 39L0 89L110.8 137Z" fill="#274d69" stroke="#274d69"></path><path d="M0 0L0 89L90.8 39Z" fill="#07304f" stroke="#07304f"></path><path d="M900 57L900 0L812.2 54Z" fill="#658a9d" stroke="#658a9d"></path><path d="M117.8 0L0 0L90.8 39Z" fill="#456b83" stroke="#456b83"></path></g></svg>